<?xml version="1.0" encoding="UTF-8" standalone="no"?>
<!DOCTYPE svg PUBLIC "-//W3C//DTD SVG 1.1//EN" "http://www.w3.org/Graphics/SVG/1.1/DTD/svg11.dtd">
<svg xmlns="http://www.w3.org/2000/svg" version="1.1" viewBox="0.00 0.00 1323.00 1356.00">
<g stroke-width="4.10" fill="none" stroke-linecap="butt">
<path stroke="#bac8a8" vector-effect="non-scaling-stroke" d="
  M 466.65 142.59
  L 456.28 152.77
  A 6.12 6.04 -75.3 0 1 453.84 154.22
  Q 434.70 160.10 415.94 167.84"
/>
<path stroke="#e0b493" vector-effect="non-scaling-stroke" d="
  M 415.94 167.84
  L 394.63 177.56
  A 0.53 0.52 87.3 0 1 393.92 176.91
  Q 394.29 175.77 394.80 175.04
  Q 395.01 174.74 404.48 161.73
  C 416.24 145.57 429.93 130.66 444.38 117.16
  Q 450.36 111.57 455.30 107.55
  C 461.57 102.44 470.74 94.39 479.32 89.06
  A 0.25 0.24 24.7 0 0 479.15 88.61
  Q 477.39 88.87 474.26 89.79
  Q 448.24 97.49 426.56 105.99
  Q 412.84 111.36 399.99 117.46
  Q 383.47 125.29 373.97 130.22
  Q 326.07 155.11 283.67 187.93
  Q 237.66 223.56 200.08 265.83
  Q 174.20 294.94 152.97 325.48
  Q 103.66 396.47 76.27 481.04
  Q 74.35 486.97 72.08 495.15
  C 68.34 508.61 65.42 518.19 62.72 530.74
  Q 53.53 573.49 49.60 618.65
  A 0.97 0.97 0.0 0 0 50.59 619.70
  Q 82.53 619.30 113.06 621.38
  Q 139.06 623.15 150.61 624.73
  A 0.98 0.98 0.0 0 0 151.72 623.87
  L 154.09 601.21
  A 0.85 0.78 65.8 0 1 154.20 600.88
  Q 154.31 600.70 154.36 600.66
  A 0.73 0.72 -22.9 0 0 154.64 599.98
  Q 154.54 599.29 154.91 595.25
  A 0.02 0.01 52.5 0 1 154.94 595.26
  Q 154.96 595.32 154.97 595.37
  A 0.10 0.07 -60.2 0 0 155.12 595.30
  Q 155.12 593.36 155.48 590.49
  Q 157.29 576.00 159.81 564.26
  Q 166.27 534.08 176.09 503.07
  Q 183.39 480.03 191.08 462.56
  Q 202.89 435.76 219.73 405.68
  Q 222.06 401.51 224.07 398.52
  C 228.16 392.45 231.65 386.68 235.57 381.09
  Q 243.30 370.05 248.60 361.59
  A 0.78 0.78 0.0 0 1 250.01 361.80
  C 251.74 368.28 252.65 372.12 254.84 377.79
  Q 258.76 387.93 264.79 403.21
  Q 268.80 413.37 280.34 436.90
  Q 282.45 441.19 293.49 460.89
  C 305.52 482.36 317.11 499.90 332.51 521.70
  Q 339.67 531.83 350.76 545.50
  Q 366.83 565.29 369.76 568.49
  Q 391.48 592.23 397.09 597.81
  Q 424.62 625.20 440.71 641.34
  C 471.30 672.01 495.11 707.91 508.42 749.04
  C 511.55 758.71 513.93 769.68 516.06 780.44
  Q 516.72 783.75 518.86 785.88
  Q 548.79 815.62 571.26 848.22
  C 600.21 890.21 621.92 937.41 636.57 986.15
  C 638.92 993.96 640.54 1002.14 642.41 1008.91
  A 0.50 0.50 0.0 0 0 643.37 1008.93
  Q 645.39 1002.58 647.14 994.89
  C 648.10 990.69 649.55 986.53 650.66 982.21
  Q 651.73 978.04 653.47 972.75
  Q 660.43 951.51 670.92 926.14
  C 672.64 921.99 675.43 917.00 676.71 914.29
  C 686.99 892.57 698.40 871.44 712.00 851.74
  Q 730.44 825.00 752.24 801.49
  Q 758.65 794.58 767.94 785.18
  Q 769.94 783.16 770.39 780.67
  Q 773.02 766.00 776.86 751.80
  C 778.52 745.66 782.19 736.02 784.14 730.84
  Q 788.48 719.32 797.29 704.03
  Q 811.25 679.79 829.52 658.77
  Q 841.56 644.92 864.64 622.26
  C 874.92 612.17 880.88 606.06 892.74 593.91
  C 923.84 562.05 951.33 527.07 975.62 489.27
  Q 982.35 478.79 990.10 465.11
  Q 999.75 448.04 1003.66 440.43
  Q 1009.72 428.64 1020.53 404.22
  Q 1026.15 391.54 1030.54 379.16
  Q 1037.12 360.62 1039.06 353.56
  Q 1044.95 332.22 1045.88 328.00
  Q 1051.22 303.97 1052.17 275.85
  C 1052.33 271.19 1051.29 263.89 1050.85 260.57
  Q 1048.05 239.08 1037.22 221.04
  Q 1036.67 220.12 1036.08 219.59
  A 0.63 0.63 0.0 0 0 1035.04 219.93
  C 1031.52 237.28 1026.59 251.77 1020.77 269.86
  C 1012.68 295.06 1002.87 317.45 990.16 343.44
  Q 979.78 364.66 962.80 392.32
  Q 936.58 435.01 906.07 469.83
  C 871.04 509.79 832.35 543.78 788.01 570.73
  Q 775.73 578.20 758.97 586.72
  Q 737.47 597.65 715.64 604.90
  C 708.81 607.17 701.61 608.81 694.77 610.16
  A 0.31 0.31 0.0 0 1 694.52 609.62
  C 705.99 600.32 715.09 590.75 722.46 577.47
  Q 731.17 561.76 734.71 544.01
  C 741.21 511.39 734.66 475.41 713.97 448.98
  C 696.86 427.14 669.91 412.75 641.70 413.36
  C 598.58 414.29 564.86 445.65 553.48 485.87
  Q 543.92 519.65 553.54 553.59
  C 560.17 577.01 573.71 595.88 592.71 610.29
  A 0.26 0.26 0.0 0 1 592.48 610.75
  C 585.05 608.61 578.16 607.17 571.24 604.93
  Q 548.37 597.52 532.05 589.40
  Q 509.13 577.99 494.19 568.27
  Q 475.22 555.92 470.44 552.55
  Q 451.07 538.92 434.54 524.30
  Q 421.61 512.86 421.44 512.73
  Q 417.97 510.04 407.98 499.96
  C 384.29 476.08 362.29 450.38 343.06 423.05
  C 335.19 411.88 328.89 401.27 320.03 387.23
  Q 314.51 378.49 305.12 361.17
  Q 303.17 357.58 301.45 353.84
  Q 300.94 352.73 297.83 346.50
  Q 289.62 330.03 284.43 317.77
  A 2.05 2.04 55.2 0 1 284.82 315.57
  C 297.52 301.96 310.02 289.18 323.60 277.69
  Q 331.26 271.21 334.06 268.82
  Q 358.02 248.45 383.99 232.08
  Q 385.52 231.11 386.62 230.63
  C 388.82 229.66 390.53 228.00 392.96 226.60
  C 415.66 213.58 435.30 202.97 456.18 194.93
  Q 468.60 190.16 478.15 186.69
  Q 487.40 183.33 508.05 177.64
  Q 546.89 166.94 588.56 166.24
  Q 629.84 165.54 669.32 175.50
  Q 709.88 185.74 747.01 206.39
  C 753.32 209.90 759.93 214.26 766.03 218.23
  A 0.26 0.25 31.9 0 1 766.11 218.55
  L 766.10 218.56
  A 0.26 0.26 0.0 0 1 765.77 218.68
  C 733.07 204.34 698.30 195.82 662.75 191.53
  Q 623.96 186.85 581.25 191.28
  Q 549.17 194.61 517.96 204.48
  Q 475.07 218.05 436.62 239.59
  A 0.62 0.61 54.1 0 0 436.47 240.55
  Q 439.97 244.32 443.81 247.69
  C 450.74 253.77 462.92 264.29 472.53 271.45
  Q 490.59 284.91 510.49 296.66
  Q 512.44 297.80 527.16 305.67
  Q 535.40 310.08 544.04 314.08
  Q 569.55 325.90 604.37 334.86
  Q 634.48 342.61 666.25 344.98
  Q 685.59 346.42 698.07 346.30
  Q 723.09 346.05 751.25 342.05
  Q 765.00 340.10 781.06 336.04
  Q 800.24 331.20 814.07 327.18
  Q 817.79 326.10 820.61 324.95
  C 825.80 322.84 830.67 321.64 836.88 319.18
  Q 866.48 307.49 889.63 294.39
  C 897.55 289.92 909.47 282.62 918.63 276.23
  C 928.25 269.53 932.64 266.79 940.41 260.47
  Q 954.49 249.01 964.34 239.76
  A 1.17 1.17 0.0 0 0 964.48 238.22
  C 958.67 230.33 954.06 223.40 948.24 216.11
  Q 928.65 191.57 909.23 172.53
  Q 884.48 148.27 855.57 127.96
  C 829.54 109.68 800.11 95.11 770.88 84.64
  Q 716.34 65.11 658.01 65.64
  Q 633.05 65.87 608.26 70.77
  Q 557.43 80.82 513.22 107.22
  Q 489.69 121.27 466.65 142.59"
/>
<path stroke="#9b7d3c" vector-effect="non-scaling-stroke" d="
  M 415.94 167.84
  Q 416.07 167.90 416.18 167.97
  A 0.23 0.22 47.0 0 1 416.17 168.36
  Q 416.05 168.42 416.05 168.43
  A 0.52 0.52 0.0 0 0 416.67 169.18
  L 423.95 166.79
  A 0.37 0.27 9.2 0 0 424.07 166.73
  Q 425.39 165.69 427.47 164.77
  Q 439.80 159.32 453.94 155.26
  A 3.83 3.65 -67.4 0 0 454.87 154.85
  Q 458.21 152.84 460.96 149.60
  A 8.04 7.90 0.5 0 1 462.14 148.46
  Q 464.53 146.57 467.10 143.87
  Q 467.49 143.45 467.38 143.06
  Q 467.25 142.61 466.65 142.59"
/>
<path stroke="#bac8a8" vector-effect="non-scaling-stroke" d="
  M 1236.49 619.63
  Q 1236.59 618.10 1236.33 615.89
  Q 1233.69 593.75 1229.14 566.01
  Q 1224.99 540.74 1219.98 522.46
  Q 1214.04 500.78 1212.12 494.63
  C 1201.05 459.25 1187.45 425.78 1170.45 393.57
  Q 1161.09 375.82 1155.64 366.59
  Q 1146.99 351.94 1135.50 334.37
  Q 1127.42 322.01 1114.60 305.89
  Q 1102.11 290.17 1092.19 278.55
  Q 1090.35 276.40 1088.73 274.96
  A 0.59 0.59 0.0 0 0 1087.75 275.40
  Q 1087.76 285.40 1086.58 296.72
  C 1084.16 319.89 1079.65 342.98 1072.34 366.22
  Q 1066.78 383.92 1061.96 396.78
  A 3.29 3.28 41.2 0 0 1062.14 399.48
  Q 1069.63 413.45 1077.08 426.89
  Q 1082.98 437.53 1092.05 457.91
  Q 1099.55 474.75 1107.75 498.22
  Q 1129.04 559.10 1134.24 623.62
  A 1.04 1.03 85.1 0 0 1135.37 624.58
  Q 1146.64 623.55 1174.08 621.50
  Q 1205.22 619.19 1235.63 620.41
  A 0.83 0.83 0.0 0 0 1236.49 619.63"
/>
<path stroke="#94a7ae" vector-effect="non-scaling-stroke" d="
  M 624.48 1164.34
  Q 624.84 1162.69 624.93 1158.97
  Q 625.85 1118.25 620.33 1076.08
  Q 619.31 1068.31 616.85 1054.47
  Q 613.87 1037.64 612.80 1032.96
  Q 607.91 1011.44 601.41 990.07
  Q 588.24 946.75 566.74 907.17
  Q 547.78 872.25 522.50 841.96
  C 493.29 806.95 456.33 775.03 416.28 750.50
  Q 374.82 725.11 334.20 708.56
  Q 309.62 698.55 280.35 689.03
  Q 252.55 680.00 225.11 673.93
  Q 172.74 662.36 117.74 657.78
  Q 89.60 655.43 48.39 655.63
  A 0.56 0.56 0.0 0 0 47.84 656.17
  Q 46.80 689.54 51.99 730.99
  Q 66.26 844.84 119.99 942.07
  Q 124.54 950.31 132.56 963.62
  Q 141.68 978.76 145.70 984.71
  Q 168.36 1018.30 195.20 1049.17
  Q 206.42 1062.07 217.91 1073.57
  Q 232.63 1088.31 241.75 1096.75
  Q 273.31 1125.96 312.21 1153.12
  Q 315.55 1155.44 322.17 1159.62
  C 330.84 1165.09 338.62 1170.56 347.26 1175.44
  Q 355.16 1179.89 367.19 1186.57
  C 394.29 1201.59 423.10 1214.10 452.99 1224.74
  C 463.64 1228.53 477.88 1232.93 486.78 1235.51
  C 509.43 1242.07 532.26 1247.21 555.88 1250.28
  C 578.00 1253.15 587.18 1254.77 602.51 1255.18
  A 0.56 0.56 0.0 0 0 603.07 1254.49
  Q 599.50 1239.33 594.53 1224.50
  Q 580.53 1182.67 556.78 1141.25
  Q 547.55 1125.16 537.35 1110.90
  Q 510.68 1073.61 477.29 1042.69
  Q 442.33 1010.31 399.70 984.51
  C 375.51 969.87 354.69 957.89 332.75 941.99
  Q 289.59 910.70 255.60 868.64
  Q 234.75 842.82 219.17 813.43
  A 0.23 0.23 0.0 0 1 219.55 813.18
  Q 233.19 830.28 249.19 845.81
  Q 280.61 876.31 317.17 899.57
  Q 337.95 912.78 356.08 922.42
  C 368.71 929.12 391.84 940.72 411.47 949.97
  C 428.88 958.19 446.71 968.26 463.24 979.57
  Q 481.70 992.21 481.76 992.25
  Q 516.19 1017.26 544.85 1047.62
  Q 553.17 1056.43 561.04 1066.03
  Q 573.38 1081.08 576.40 1085.11
  Q 600.10 1116.82 618.72 1152.29
  Q 622.16 1158.84 624.13 1164.37
  A 0.19 0.18 -49.1 0 0 624.48 1164.34"
/>
<path stroke="#bac8a8" vector-effect="non-scaling-stroke" d="
  M 1067.43 812.51
  A 0.18 0.16 47.9 0 1 1067.43 812.68
  Q 1044.10 856.03 1011.63 890.14
  Q 993.80 908.88 979.50 921.24
  Q 952.14 944.89 916.57 966.33
  Q 892.77 980.68 879.84 988.60
  Q 833.44 1017.04 792.86 1057.88
  Q 779.21 1071.62 770.60 1082.33
  C 761.09 1094.15 750.96 1107.05 742.70 1119.64
  Q 720.52 1153.48 704.76 1189.57
  Q 698.25 1204.47 692.55 1221.71
  Q 686.82 1239.02 682.37 1254.57
  A 0.69 0.69 0.0 0 0 683.07 1255.45
  C 701.87 1254.49 717.71 1251.92 738.50 1249.16
  Q 750.41 1247.57 765.83 1244.08
  Q 836.90 1227.97 902.59 1194.82
  Q 927.72 1182.14 944.12 1172.10
  C 974.22 1153.69 1004.01 1132.66 1031.63 1108.12
  C 1054.89 1087.47 1077.24 1065.76 1096.85 1042.36
  C 1107.17 1030.05 1119.64 1014.36 1129.14 1001.05
  Q 1164.13 952.04 1189.14 895.92
  C 1205.79 858.55 1218.16 817.89 1226.81 777.57
  C 1227.05 776.43 1227.80 775.28 1227.68 774.40
  Q 1227.63 773.96 1227.90 772.24
  Q 1234.69 728.93 1235.36 721.48
  Q 1238.19 689.94 1237.95 656.49
  A 0.59 0.59 0.0 0 0 1237.38 655.91
  Q 1200.66 654.89 1165.21 657.95
  C 1117.51 662.05 1069.32 669.96 1024.00 683.04
  Q 990.70 692.65 950.75 708.87
  Q 936.58 714.62 920.99 722.27
  Q 902.16 731.50 891.92 737.18
  Q 837.45 767.39 793.01 810.29
  Q 761.48 840.73 738.75 874.84
  C 710.46 917.29 690.18 964.47 677.52 1015.03
  Q 674.02 1029.00 673.05 1033.53
  C 668.71 1053.83 664.69 1076.66 663.02 1097.98
  Q 660.51 1130.17 661.14 1163.47
  A 0.39 0.39 0.0 0 0 661.89 1163.63
  Q 671.92 1142.57 684.20 1123.18
  C 697.19 1102.68 707.60 1086.66 720.91 1070.66
  Q 731.00 1058.52 746.15 1042.67
  Q 781.09 1006.12 825.23 977.98
  Q 854.64 959.24 882.07 946.34
  Q 915.38 930.67 929.81 922.77
  Q 948.11 912.76 967.75 900.48
  C 1001.68 879.28 1032.96 852.70 1058.70 822.72
  Q 1065.35 814.98 1066.92 812.28
  A 0.21 0.21 0.0 0 1 1067.27 812.27
  L 1067.43 812.51"
/>
</g>
<path fill="#ffffff" d="
  M 1323.00 0.00
  L 1323.00 1356.00
  L 0.00 1356.00
  L 0.00 0.00
  L 1323.00 0.00
  Z
  M 466.65 142.59
  L 456.28 152.77
  A 6.12 6.04 -75.3 0 1 453.84 154.22
  Q 434.70 160.10 415.94 167.84
  L 394.63 177.56
  A 0.53 0.52 87.3 0 1 393.92 176.91
  Q 394.29 175.77 394.80 175.04
  Q 395.01 174.74 404.48 161.73
  C 416.24 145.57 429.93 130.66 444.38 117.16
  Q 450.36 111.57 455.30 107.55
  C 461.57 102.44 470.74 94.39 479.32 89.06
  A 0.25 0.24 24.7 0 0 479.15 88.61
  Q 477.39 88.87 474.26 89.79
  Q 448.24 97.49 426.56 105.99
  Q 412.84 111.36 399.99 117.46
  Q 383.47 125.29 373.97 130.22
  Q 326.07 155.11 283.67 187.93
  Q 237.66 223.56 200.08 265.83
  Q 174.20 294.94 152.97 325.48
  Q 103.66 396.47 76.27 481.04
  Q 74.35 486.97 72.08 495.15
  C 68.34 508.61 65.42 518.19 62.72 530.74
  Q 53.53 573.49 49.60 618.65
  A 0.97 0.97 0.0 0 0 50.59 619.70
  Q 82.53 619.30 113.06 621.38
  Q 139.06 623.15 150.61 624.73
  A 0.98 0.98 0.0 0 0 151.72 623.87
  L 154.09 601.21
  A 0.85 0.78 65.8 0 1 154.20 600.88
  Q 154.31 600.70 154.36 600.66
  A 0.73 0.72 -22.9 0 0 154.64 599.98
  Q 154.54 599.29 154.91 595.25
  A 0.02 0.01 52.5 0 1 154.94 595.26
  Q 154.96 595.32 154.97 595.37
  A 0.10 0.07 -60.2 0 0 155.12 595.30
  Q 155.12 593.36 155.48 590.49
  Q 157.29 576.00 159.81 564.26
  Q 166.27 534.08 176.09 503.07
  Q 183.39 480.03 191.08 462.56
  Q 202.89 435.76 219.73 405.68
  Q 222.06 401.51 224.07 398.52
  C 228.16 392.45 231.65 386.68 235.57 381.09
  Q 243.30 370.05 248.60 361.59
  A 0.78 0.78 0.0 0 1 250.01 361.80
  C 251.74 368.28 252.65 372.12 254.84 377.79
  Q 258.76 387.93 264.79 403.21
  Q 268.80 413.37 280.34 436.90
  Q 282.45 441.19 293.49 460.89
  C 305.52 482.36 317.11 499.90 332.51 521.70
  Q 339.67 531.83 350.76 545.50
  Q 366.83 565.29 369.76 568.49
  Q 391.48 592.23 397.09 597.81
  Q 424.62 625.20 440.71 641.34
  C 471.30 672.01 495.11 707.91 508.42 749.04
  C 511.55 758.71 513.93 769.68 516.06 780.44
  Q 516.72 783.75 518.86 785.88
  Q 548.79 815.62 571.26 848.22
  C 600.21 890.21 621.92 937.41 636.57 986.15
  C 638.92 993.96 640.54 1002.14 642.41 1008.91
  A 0.50 0.50 0.0 0 0 643.37 1008.93
  Q 645.39 1002.58 647.14 994.89
  C 648.10 990.69 649.55 986.53 650.66 982.21
  Q 651.73 978.04 653.47 972.75
  Q 660.43 951.51 670.92 926.14
  C 672.64 921.99 675.43 917.00 676.71 914.29
  C 686.99 892.57 698.40 871.44 712.00 851.74
  Q 730.44 825.00 752.24 801.49
  Q 758.65 794.58 767.94 785.18
  Q 769.94 783.16 770.39 780.67
  Q 773.02 766.00 776.86 751.80
  C 778.52 745.66 782.19 736.02 784.14 730.84
  Q 788.48 719.32 797.29 704.03
  Q 811.25 679.79 829.52 658.77
  Q 841.56 644.92 864.64 622.26
  C 874.92 612.17 880.88 606.06 892.74 593.91
  C 923.84 562.05 951.33 527.07 975.62 489.27
  Q 982.35 478.79 990.10 465.11
  Q 999.75 448.04 1003.66 440.43
  Q 1009.72 428.64 1020.53 404.22
  Q 1026.15 391.54 1030.54 379.16
  Q 1037.12 360.62 1039.06 353.56
  Q 1044.95 332.22 1045.88 328.00
  Q 1051.22 303.97 1052.17 275.85
  C 1052.33 271.19 1051.29 263.89 1050.85 260.57
  Q 1048.05 239.08 1037.22 221.04
  Q 1036.67 220.12 1036.08 219.59
  A 0.63 0.63 0.0 0 0 1035.04 219.93
  C 1031.52 237.28 1026.59 251.77 1020.77 269.86
  C 1012.68 295.06 1002.87 317.45 990.16 343.44
  Q 979.78 364.66 962.80 392.32
  Q 936.58 435.01 906.07 469.83
  C 871.04 509.79 832.35 543.78 788.01 570.73
  Q 775.73 578.20 758.97 586.72
  Q 737.47 597.65 715.64 604.90
  C 708.81 607.17 701.61 608.81 694.77 610.16
  A 0.31 0.31 0.0 0 1 694.52 609.62
  C 705.99 600.32 715.09 590.75 722.46 577.47
  Q 731.17 561.76 734.71 544.01
  C 741.21 511.39 734.66 475.41 713.97 448.98
  C 696.86 427.14 669.91 412.75 641.70 413.36
  C 598.58 414.29 564.86 445.65 553.48 485.87
  Q 543.92 519.65 553.54 553.59
  C 560.17 577.01 573.71 595.88 592.71 610.29
  A 0.26 0.26 0.0 0 1 592.48 610.75
  C 585.05 608.61 578.16 607.17 571.24 604.93
  Q 548.37 597.52 532.05 589.40
  Q 509.13 577.99 494.19 568.27
  Q 475.22 555.92 470.44 552.55
  Q 451.07 538.92 434.54 524.30
  Q 421.61 512.86 421.44 512.73
  Q 417.97 510.04 407.98 499.96
  C 384.29 476.08 362.29 450.38 343.06 423.05
  C 335.19 411.88 328.89 401.27 320.03 387.23
  Q 314.51 378.49 305.12 361.17
  Q 303.17 357.58 301.45 353.84
  Q 300.94 352.73 297.83 346.50
  Q 289.62 330.03 284.43 317.77
  A 2.05 2.04 55.2 0 1 284.82 315.57
  C 297.52 301.96 310.02 289.18 323.60 277.69
  Q 331.26 271.21 334.06 268.82
  Q 358.02 248.45 383.99 232.08
  Q 385.52 231.11 386.62 230.63
  C 388.82 229.66 390.53 228.00 392.96 226.60
  C 415.66 213.58 435.30 202.97 456.18 194.93
  Q 468.60 190.16 478.15 186.69
  Q 487.40 183.33 508.05 177.64
  Q 546.89 166.94 588.56 166.24
  Q 629.84 165.54 669.32 175.50
  Q 709.88 185.74 747.01 206.39
  C 753.32 209.90 759.93 214.26 766.03 218.23
  A 0.26 0.25 31.9 0 1 766.11 218.55
  L 766.10 218.56
  A 0.26 0.26 0.0 0 1 765.77 218.68
  C 733.07 204.34 698.30 195.82 662.75 191.53
  Q 623.96 186.85 581.25 191.28
  Q 549.17 194.61 517.96 204.48
  Q 475.07 218.05 436.62 239.59
  A 0.62 0.61 54.1 0 0 436.47 240.55
  Q 439.97 244.32 443.81 247.69
  C 450.74 253.77 462.92 264.29 472.53 271.45
  Q 490.59 284.91 510.49 296.66
  Q 512.44 297.80 527.16 305.67
  Q 535.40 310.08 544.04 314.08
  Q 569.55 325.90 604.37 334.86
  Q 634.48 342.61 666.25 344.98
  Q 685.59 346.42 698.07 346.30
  Q 723.09 346.05 751.25 342.05
  Q 765.00 340.10 781.06 336.04
  Q 800.24 331.20 814.07 327.18
  Q 817.79 326.10 820.61 324.95
  C 825.80 322.84 830.67 321.64 836.88 319.18
  Q 866.48 307.49 889.63 294.39
  C 897.55 289.92 909.47 282.62 918.63 276.23
  C 928.25 269.53 932.64 266.79 940.41 260.47
  Q 954.49 249.01 964.34 239.76
  A 1.17 1.17 0.0 0 0 964.48 238.22
  C 958.67 230.33 954.06 223.40 948.24 216.11
  Q 928.65 191.57 909.23 172.53
  Q 884.48 148.27 855.57 127.96
  C 829.54 109.68 800.11 95.11 770.88 84.64
  Q 716.34 65.11 658.01 65.64
  Q 633.05 65.87 608.26 70.77
  Q 557.43 80.82 513.22 107.22
  Q 489.69 121.27 466.65 142.59
  Z
  M 1236.49 619.63
  Q 1236.59 618.10 1236.33 615.89
  Q 1233.69 593.75 1229.14 566.01
  Q 1224.99 540.74 1219.98 522.46
  Q 1214.04 500.78 1212.12 494.63
  C 1201.05 459.25 1187.45 425.78 1170.45 393.57
  Q 1161.09 375.82 1155.64 366.59
  Q 1146.99 351.94 1135.50 334.37
  Q 1127.42 322.01 1114.60 305.89
  Q 1102.11 290.17 1092.19 278.55
  Q 1090.35 276.40 1088.73 274.96
  A 0.59 0.59 0.0 0 0 1087.75 275.40
  Q 1087.76 285.40 1086.58 296.72
  C 1084.16 319.89 1079.65 342.98 1072.34 366.22
  Q 1066.78 383.92 1061.96 396.78
  A 3.29 3.28 41.2 0 0 1062.14 399.48
  Q 1069.63 413.45 1077.08 426.89
  Q 1082.98 437.53 1092.05 457.91
  Q 1099.55 474.75 1107.75 498.22
  Q 1129.04 559.10 1134.24 623.62
  A 1.04 1.03 85.1 0 0 1135.37 624.58
  Q 1146.64 623.55 1174.08 621.50
  Q 1205.22 619.19 1235.63 620.41
  A 0.83 0.83 0.0 0 0 1236.49 619.63
  Z
  M 624.48 1164.34
  Q 624.84 1162.69 624.93 1158.97
  Q 625.85 1118.25 620.33 1076.08
  Q 619.31 1068.31 616.85 1054.47
  Q 613.87 1037.64 612.80 1032.96
  Q 607.91 1011.44 601.41 990.07
  Q 588.24 946.75 566.74 907.17
  Q 547.78 872.25 522.50 841.96
  C 493.29 806.95 456.33 775.03 416.28 750.50
  Q 374.82 725.11 334.20 708.56
  Q 309.62 698.55 280.35 689.03
  Q 252.55 680.00 225.11 673.93
  Q 172.74 662.36 117.74 657.78
  Q 89.60 655.43 48.39 655.63
  A 0.56 0.56 0.0 0 0 47.84 656.17
  Q 46.80 689.54 51.99 730.99
  Q 66.26 844.84 119.99 942.07
  Q 124.54 950.31 132.56 963.62
  Q 141.68 978.76 145.70 984.71
  Q 168.36 1018.30 195.20 1049.17
  Q 206.42 1062.07 217.91 1073.57
  Q 232.63 1088.31 241.75 1096.75
  Q 273.31 1125.96 312.21 1153.12
  Q 315.55 1155.44 322.17 1159.62
  C 330.84 1165.09 338.62 1170.56 347.26 1175.44
  Q 355.16 1179.89 367.19 1186.57
  C 394.29 1201.59 423.10 1214.10 452.99 1224.74
  C 463.64 1228.53 477.88 1232.93 486.78 1235.51
  C 509.43 1242.07 532.26 1247.21 555.88 1250.28
  C 578.00 1253.15 587.18 1254.77 602.51 1255.18
  A 0.56 0.56 0.0 0 0 603.07 1254.49
  Q 599.50 1239.33 594.53 1224.50
  Q 580.53 1182.67 556.78 1141.25
  Q 547.55 1125.16 537.35 1110.90
  Q 510.68 1073.61 477.29 1042.69
  Q 442.33 1010.31 399.70 984.51
  C 375.51 969.87 354.69 957.89 332.75 941.99
  Q 289.59 910.70 255.60 868.64
  Q 234.75 842.82 219.17 813.43
  A 0.23 0.23 0.0 0 1 219.55 813.18
  Q 233.19 830.28 249.19 845.81
  Q 280.61 876.31 317.17 899.57
  Q 337.95 912.78 356.08 922.42
  C 368.71 929.12 391.84 940.72 411.47 949.97
  C 428.88 958.19 446.71 968.26 463.24 979.57
  Q 481.70 992.21 481.76 992.25
  Q 516.19 1017.26 544.85 1047.62
  Q 553.17 1056.43 561.04 1066.03
  Q 573.38 1081.08 576.40 1085.11
  Q 600.10 1116.82 618.72 1152.29
  Q 622.16 1158.84 624.13 1164.37
  A 0.19 0.18 -49.1 0 0 624.48 1164.34
  Z
  M 1067.43 812.51
  A 0.18 0.16 47.9 0 1 1067.43 812.68
  Q 1044.10 856.03 1011.63 890.14
  Q 993.80 908.88 979.50 921.24
  Q 952.14 944.89 916.57 966.33
  Q 892.77 980.68 879.84 988.60
  Q 833.44 1017.04 792.86 1057.88
  Q 779.21 1071.62 770.60 1082.33
  C 761.09 1094.15 750.96 1107.05 742.70 1119.64
  Q 720.52 1153.48 704.76 1189.57
  Q 698.25 1204.47 692.55 1221.71
  Q 686.82 1239.02 682.37 1254.57
  A 0.69 0.69 0.0 0 0 683.07 1255.45
  C 701.87 1254.49 717.71 1251.92 738.50 1249.16
  Q 750.41 1247.57 765.83 1244.08
  Q 836.90 1227.97 902.59 1194.82
  Q 927.72 1182.14 944.12 1172.10
  C 974.22 1153.69 1004.01 1132.66 1031.63 1108.12
  C 1054.89 1087.47 1077.24 1065.76 1096.85 1042.36
  C 1107.17 1030.05 1119.64 1014.36 1129.14 1001.05
  Q 1164.13 952.04 1189.14 895.92
  C 1205.79 858.55 1218.16 817.89 1226.81 777.57
  C 1227.05 776.43 1227.80 775.28 1227.68 774.40
  Q 1227.63 773.96 1227.90 772.24
  Q 1234.69 728.93 1235.36 721.48
  Q 1238.19 689.94 1237.95 656.49
  A 0.59 0.59 0.0 0 0 1237.38 655.91
  Q 1200.66 654.89 1165.21 657.95
  C 1117.51 662.05 1069.32 669.96 1024.00 683.04
  Q 990.70 692.65 950.75 708.87
  Q 936.58 714.62 920.99 722.27
  Q 902.16 731.50 891.92 737.18
  Q 837.45 767.39 793.01 810.29
  Q 761.48 840.73 738.75 874.84
  C 710.46 917.29 690.18 964.47 677.52 1015.03
  Q 674.02 1029.00 673.05 1033.53
  C 668.71 1053.83 664.69 1076.66 663.02 1097.98
  Q 660.51 1130.17 661.14 1163.47
  A 0.39 0.39 0.0 0 0 661.89 1163.63
  Q 671.92 1142.57 684.20 1123.18
  C 697.19 1102.68 707.60 1086.66 720.91 1070.66
  Q 731.00 1058.52 746.15 1042.67
  Q 781.09 1006.12 825.23 977.98
  Q 854.64 959.24 882.07 946.34
  Q 915.38 930.67 929.81 922.77
  Q 948.11 912.76 967.75 900.48
  C 1001.68 879.28 1032.96 852.70 1058.70 822.72
  Q 1065.35 814.98 1066.92 812.28
  A 0.21 0.21 0.0 0 1 1067.27 812.27
  L 1067.43 812.51
  Z"
/>
<path fill="#c16927" d="
  M 415.94 167.84
  Q 416.07 167.90 416.18 167.97
  A 0.23 0.22 47.0 0 1 416.17 168.36
  Q 416.05 168.42 416.05 168.43
  A 0.52 0.52 0.0 0 0 416.67 169.18
  L 423.95 166.79
  A 0.37 0.27 9.2 0 0 424.07 166.73
  Q 425.39 165.69 427.47 164.77
  Q 439.80 159.32 453.94 155.26
  A 3.83 3.65 -67.4 0 0 454.87 154.85
  Q 458.21 152.84 460.96 149.60
  A 8.04 7.90 0.5 0 1 462.14 148.46
  Q 464.53 146.57 467.10 143.87
  Q 467.49 143.45 467.38 143.06
  Q 467.25 142.61 466.65 142.59
  Q 489.69 121.27 513.22 107.22
  Q 557.43 80.82 608.26 70.77
  Q 633.05 65.87 658.01 65.64
  Q 716.34 65.11 770.88 84.64
  C 800.11 95.11 829.54 109.68 855.57 127.96
  Q 884.48 148.27 909.23 172.53
  Q 928.65 191.57 948.24 216.11
  C 954.06 223.40 958.67 230.33 964.48 238.22
  A 1.17 1.17 0.0 0 1 964.34 239.76
  Q 954.49 249.01 940.41 260.47
  C 932.64 266.79 928.25 269.53 918.63 276.23
  C 909.47 282.62 897.55 289.92 889.63 294.39
  Q 866.48 307.49 836.88 319.18
  C 830.67 321.64 825.80 322.84 820.61 324.95
  Q 817.79 326.10 814.07 327.18
  Q 800.24 331.20 781.06 336.04
  Q 765.00 340.10 751.25 342.05
  Q 723.09 346.05 698.07 346.30
  Q 685.59 346.42 666.25 344.98
  Q 634.48 342.61 604.37 334.86
  Q 569.55 325.90 544.04 314.08
  Q 535.40 310.08 527.16 305.67
  Q 512.44 297.80 510.49 296.66
  Q 490.59 284.91 472.53 271.45
  C 462.92 264.29 450.74 253.77 443.81 247.69
  Q 439.97 244.32 436.47 240.55
  A 0.62 0.61 54.1 0 1 436.62 239.59
  Q 475.07 218.05 517.96 204.48
  Q 549.17 194.61 581.25 191.28
  Q 623.96 186.85 662.75 191.53
  C 698.30 195.82 733.07 204.34 765.77 218.68
  A 0.26 0.26 0.0 0 0 766.10 218.56
  L 766.11 218.55
  A 0.26 0.25 31.9 0 0 766.03 218.23
  C 759.93 214.26 753.32 209.90 747.01 206.39
  Q 709.88 185.74 669.32 175.50
  Q 629.84 165.54 588.56 166.24
  Q 546.89 166.94 508.05 177.64
  Q 487.40 183.33 478.15 186.69
  Q 468.60 190.16 456.18 194.93
  C 435.30 202.97 415.66 213.58 392.96 226.60
  C 390.53 228.00 388.82 229.66 386.62 230.63
  Q 385.52 231.11 383.99 232.08
  Q 358.02 248.45 334.06 268.82
  Q 331.26 271.21 323.60 277.69
  C 310.02 289.18 297.52 301.96 284.82 315.57
  A 2.05 2.04 55.2 0 0 284.43 317.77
  Q 289.62 330.03 297.83 346.50
  Q 300.94 352.73 301.45 353.84
  Q 303.17 357.58 305.12 361.17
  Q 314.51 378.49 320.03 387.23
  C 328.89 401.27 335.19 411.88 343.06 423.05
  C 362.29 450.38 384.29 476.08 407.98 499.96
  Q 417.97 510.04 421.44 512.73
  Q 421.61 512.86 434.54 524.30
  Q 451.07 538.92 470.44 552.55
  Q 475.22 555.92 494.19 568.27
  Q 509.13 577.99 532.05 589.40
  Q 548.37 597.52 571.24 604.93
  C 578.16 607.17 585.05 608.61 592.48 610.75
  A 0.26 0.26 0.0 0 0 592.71 610.29
  C 573.71 595.88 560.17 577.01 553.54 553.59
  Q 543.92 519.65 553.48 485.87
  C 564.86 445.65 598.58 414.29 641.70 413.36
  C 669.91 412.75 696.86 427.14 713.97 448.98
  C 734.66 475.41 741.21 511.39 734.71 544.01
  Q 731.17 561.76 722.46 577.47
  C 715.09 590.75 705.99 600.32 694.52 609.62
  A 0.31 0.31 0.0 0 0 694.77 610.16
  C 701.61 608.81 708.81 607.17 715.64 604.90
  Q 737.47 597.65 758.97 586.72
  Q 775.73 578.20 788.01 570.73
  C 832.35 543.78 871.04 509.79 906.07 469.83
  Q 936.58 435.01 962.80 392.32
  Q 979.78 364.66 990.16 343.44
  C 1002.87 317.45 1012.68 295.06 1020.77 269.86
  C 1026.59 251.77 1031.52 237.28 1035.04 219.93
  A 0.63 0.63 0.0 0 1 1036.08 219.59
  Q 1036.67 220.12 1037.22 221.04
  Q 1048.05 239.08 1050.85 260.57
  C 1051.29 263.89 1052.33 271.19 1052.17 275.85
  Q 1051.22 303.97 1045.88 328.00
  Q 1044.95 332.22 1039.06 353.56
  Q 1037.12 360.62 1030.54 379.16
  Q 1026.15 391.54 1020.53 404.22
  Q 1009.72 428.64 1003.66 440.43
  Q 999.75 448.04 990.10 465.11
  Q 982.35 478.79 975.62 489.27
  C 951.33 527.07 923.84 562.05 892.74 593.91
  C 880.88 606.06 874.92 612.17 864.64 622.26
  Q 841.56 644.92 829.52 658.77
  Q 811.25 679.79 797.29 704.03
  Q 788.48 719.32 784.14 730.84
  C 782.19 736.02 778.52 745.66 776.86 751.80
  Q 773.02 766.00 770.39 780.67
  Q 769.94 783.16 767.94 785.18
  Q 758.65 794.58 752.24 801.49
  Q 730.44 825.00 712.00 851.74
  C 698.40 871.44 686.99 892.57 676.71 914.29
  C 675.43 917.00 672.64 921.99 670.92 926.14
  Q 660.43 951.51 653.47 972.75
  Q 651.73 978.04 650.66 982.21
  C 649.55 986.53 648.10 990.69 647.14 994.89
  Q 645.39 1002.58 643.37 1008.93
  A 0.50 0.50 0.0 0 1 642.41 1008.91
  C 640.54 1002.14 638.92 993.96 636.57 986.15
  C 621.92 937.41 600.21 890.21 571.26 848.22
  Q 548.79 815.62 518.86 785.88
  Q 516.72 783.75 516.06 780.44
  C 513.93 769.68 511.55 758.71 508.42 749.04
  C 495.11 707.91 471.30 672.01 440.71 641.34
  Q 424.62 625.20 397.09 597.81
  Q 391.48 592.23 369.76 568.49
  Q 366.83 565.29 350.76 545.50
  Q 339.67 531.83 332.51 521.70
  C 317.11 499.90 305.52 482.36 293.49 460.89
  Q 282.45 441.19 280.34 436.90
  Q 268.80 413.37 264.79 403.21
  Q 258.76 387.93 254.84 377.79
  C 252.65 372.12 251.74 368.28 250.01 361.80
  A 0.78 0.78 0.0 0 0 248.60 361.59
  Q 243.30 370.05 235.57 381.09
  C 231.65 386.68 228.16 392.45 224.07 398.52
  Q 222.06 401.51 219.73 405.68
  Q 202.89 435.76 191.08 462.56
  Q 183.39 480.03 176.09 503.07
  Q 166.27 534.08 159.81 564.26
  Q 157.29 576.00 155.48 590.49
  Q 155.12 593.36 155.12 595.30
  A 0.10 0.07 -60.2 0 1 154.97 595.37
  Q 154.96 595.32 154.94 595.26
  A 0.02 0.01 52.5 0 0 154.91 595.25
  Q 154.54 599.29 154.64 599.98
  A 0.73 0.72 -22.9 0 1 154.36 600.66
  Q 154.31 600.70 154.20 600.88
  A 0.85 0.78 65.8 0 0 154.09 601.21
  L 151.72 623.87
  A 0.98 0.98 0.0 0 1 150.61 624.73
  Q 139.06 623.15 113.06 621.38
  Q 82.53 619.30 50.59 619.70
  A 0.97 0.97 0.0 0 1 49.60 618.65
  Q 53.53 573.49 62.72 530.74
  C 65.42 518.19 68.34 508.61 72.08 495.15
  Q 74.35 486.97 76.27 481.04
  Q 103.66 396.47 152.97 325.48
  Q 174.20 294.94 200.08 265.83
  Q 237.66 223.56 283.67 187.93
  Q 326.07 155.11 373.97 130.22
  Q 383.47 125.29 399.99 117.46
  Q 412.84 111.36 426.56 105.99
  Q 448.24 97.49 474.26 89.79
  Q 477.39 88.87 479.15 88.61
  A 0.25 0.24 24.7 0 1 479.32 89.06
  C 470.74 94.39 461.57 102.44 455.30 107.55
  Q 450.36 111.57 444.38 117.16
  C 429.93 130.66 416.24 145.57 404.48 161.73
  Q 395.01 174.74 394.80 175.04
  Q 394.29 175.77 393.92 176.91
  A 0.53 0.52 87.3 0 0 394.63 177.56
  L 415.94 167.84
  Z"
/>
<path fill="#749150" d="
  M 466.65 142.59
  Q 467.25 142.61 467.38 143.06
  Q 467.49 143.45 467.10 143.87
  Q 464.53 146.57 462.14 148.46
  A 8.04 7.90 0.5 0 0 460.96 149.60
  Q 458.21 152.84 454.87 154.85
  A 3.83 3.65 -67.4 0 1 453.94 155.26
  Q 439.80 159.32 427.47 164.77
  Q 425.39 165.69 424.07 166.73
  A 0.37 0.27 9.2 0 1 423.95 166.79
  L 416.67 169.18
  A 0.52 0.52 0.0 0 1 416.05 168.43
  Q 416.05 168.42 416.17 168.36
  A 0.23 0.22 47.0 0 0 416.18 167.97
  Q 416.07 167.90 415.94 167.84
  Q 434.70 160.10 453.84 154.22
  A 6.12 6.04 -75.3 0 0 456.28 152.77
  L 466.65 142.59
  Z"
/>
<path fill="#749150" d="
  M 1236.49 619.63
  A 0.83 0.83 0.0 0 1 1235.63 620.41
  Q 1205.22 619.19 1174.08 621.50
  Q 1146.64 623.55 1135.37 624.58
  A 1.04 1.03 85.1 0 1 1134.24 623.62
  Q 1129.04 559.10 1107.75 498.22
  Q 1099.55 474.75 1092.05 457.91
  Q 1082.98 437.53 1077.08 426.89
  Q 1069.63 413.45 1062.14 399.48
  A 3.29 3.28 41.2 0 1 1061.96 396.78
  Q 1066.78 383.92 1072.34 366.22
  C 1079.65 342.98 1084.16 319.89 1086.58 296.72
  Q 1087.76 285.40 1087.75 275.40
  A 0.59 0.59 0.0 0 1 1088.73 274.96
  Q 1090.35 276.40 1092.19 278.55
  Q 1102.11 290.17 1114.60 305.89
  Q 1127.42 322.01 1135.50 334.37
  Q 1146.99 351.94 1155.64 366.59
  Q 1161.09 375.82 1170.45 393.57
  C 1187.45 425.78 1201.05 459.25 1212.12 494.63
  Q 1214.04 500.78 1219.98 522.46
  Q 1224.99 540.74 1229.14 566.01
  Q 1233.69 593.75 1236.33 615.89
  Q 1236.59 618.10 1236.49 619.63
  Z"
/>
<path fill="#284e5d" d="
  M 624.48 1164.34
  A 0.19 0.18 -49.1 0 1 624.13 1164.37
  Q 622.16 1158.84 618.72 1152.29
  Q 600.10 1116.82 576.40 1085.11
  Q 573.38 1081.08 561.04 1066.03
  Q 553.17 1056.43 544.85 1047.62
  Q 516.19 1017.26 481.76 992.25
  Q 481.70 992.21 463.24 979.57
  C 446.71 968.26 428.88 958.19 411.47 949.97
  C 391.84 940.72 368.71 929.12 356.08 922.42
  Q 337.95 912.78 317.17 899.57
  Q 280.61 876.31 249.19 845.81
  Q 233.19 830.28 219.55 813.18
  A 0.23 0.23 0.0 0 0 219.17 813.43
  Q 234.75 842.82 255.60 868.64
  Q 289.59 910.70 332.75 941.99
  C 354.69 957.89 375.51 969.87 399.70 984.51
  Q 442.33 1010.31 477.29 1042.69
  Q 510.68 1073.61 537.35 1110.90
  Q 547.55 1125.16 556.78 1141.25
  Q 580.53 1182.67 594.53 1224.50
  Q 599.50 1239.33 603.07 1254.49
  A 0.56 0.56 0.0 0 1 602.51 1255.18
  C 587.18 1254.77 578.00 1253.15 555.88 1250.28
  C 532.26 1247.21 509.43 1242.07 486.78 1235.51
  C 477.88 1232.93 463.64 1228.53 452.99 1224.74
  C 423.10 1214.10 394.29 1201.59 367.19 1186.57
  Q 355.16 1179.89 347.26 1175.44
  C 338.62 1170.56 330.84 1165.09 322.17 1159.62
  Q 315.55 1155.44 312.21 1153.12
  Q 273.31 1125.96 241.75 1096.75
  Q 232.63 1088.31 217.91 1073.57
  Q 206.42 1062.07 195.20 1049.17
  Q 168.36 1018.30 145.70 984.71
  Q 141.68 978.76 132.56 963.62
  Q 124.54 950.31 119.99 942.07
  Q 66.26 844.84 51.99 730.99
  Q 46.80 689.54 47.84 656.17
  A 0.56 0.56 0.0 0 1 48.39 655.63
  Q 89.60 655.43 117.74 657.78
  Q 172.74 662.36 225.11 673.93
  Q 252.55 680.00 280.35 689.03
  Q 309.62 698.55 334.20 708.56
  Q 374.82 725.11 416.28 750.50
  C 456.33 775.03 493.29 806.95 522.50 841.96
  Q 547.78 872.25 566.74 907.17
  Q 588.24 946.75 601.41 990.07
  Q 607.91 1011.44 612.80 1032.96
  Q 613.87 1037.64 616.85 1054.47
  Q 619.31 1068.31 620.33 1076.08
  Q 625.85 1118.25 624.93 1158.97
  Q 624.84 1162.69 624.48 1164.34
  Z"
/>
<path fill="#749150" d="
  M 1067.43 812.51
  L 1067.27 812.27
  A 0.21 0.21 0.0 0 0 1066.92 812.28
  Q 1065.35 814.98 1058.70 822.72
  C 1032.96 852.70 1001.68 879.28 967.75 900.48
  Q 948.11 912.76 929.81 922.77
  Q 915.38 930.67 882.07 946.34
  Q 854.64 959.24 825.23 977.98
  Q 781.09 1006.12 746.15 1042.67
  Q 731.00 1058.52 720.91 1070.66
  C 707.60 1086.66 697.19 1102.68 684.20 1123.18
  Q 671.92 1142.57 661.89 1163.63
  A 0.39 0.39 0.0 0 1 661.14 1163.47
  Q 660.51 1130.17 663.02 1097.98
  C 664.69 1076.66 668.71 1053.83 673.05 1033.53
  Q 674.02 1029.00 677.52 1015.03
  C 690.18 964.47 710.46 917.29 738.75 874.84
  Q 761.48 840.73 793.01 810.29
  Q 837.45 767.39 891.92 737.18
  Q 902.16 731.50 920.99 722.27
  Q 936.58 714.62 950.75 708.87
  Q 990.70 692.65 1024.00 683.04
  C 1069.32 669.96 1117.51 662.05 1165.21 657.95
  Q 1200.66 654.89 1237.38 655.91
  A 0.59 0.59 0.0 0 1 1237.95 656.49
  Q 1238.19 689.94 1235.36 721.48
  Q 1234.69 728.93 1227.90 772.24
  Q 1227.63 773.96 1227.68 774.40
  C 1227.80 775.28 1227.05 776.43 1226.81 777.57
  C 1218.16 817.89 1205.79 858.55 1189.14 895.92
  Q 1164.13 952.04 1129.14 1001.05
  C 1119.64 1014.36 1107.17 1030.05 1096.85 1042.36
  C 1077.24 1065.76 1054.89 1087.47 1031.63 1108.12
  C 1004.01 1132.66 974.22 1153.69 944.12 1172.10
  Q 927.72 1182.14 902.59 1194.82
  Q 836.90 1227.97 765.83 1244.08
  Q 750.41 1247.57 738.50 1249.16
  C 717.71 1251.92 701.87 1254.49 683.07 1255.45
  A 0.69 0.69 0.0 0 1 682.37 1254.57
  Q 686.82 1239.02 692.55 1221.71
  Q 698.25 1204.47 704.76 1189.57
  Q 720.52 1153.48 742.70 1119.64
  C 750.96 1107.05 761.09 1094.15 770.60 1082.33
  Q 779.21 1071.62 792.86 1057.88
  Q 833.44 1017.04 879.84 988.60
  Q 892.77 980.68 916.57 966.33
  Q 952.14 944.89 979.50 921.24
  Q 993.80 908.88 1011.63 890.14
  Q 1044.10 856.03 1067.43 812.68
  A 0.18 0.16 47.9 0 0 1067.43 812.51
  Z"
/>
</svg>
